<svg width="59" height="59" viewBox="0 0 59 59" fill="none" xmlns="http://www.w3.org/2000/svg">
<path fill-rule="evenodd" clip-rule="evenodd" d="M22.0978 13.0483C24.9985 7.14255 31.0741 3.07291 38.104 3.07291C47.9473 3.07291 55.9269 11.0525 55.9269 20.8958C55.9269 23.5314 55.3537 26.0381 54.3233 28.2938C54.0544 28.8825 54.002 29.4385 54.1216 29.8854L54.4347 31.0556C55.437 34.8017 52.0099 38.2289 48.2638 37.2265L47.0935 36.9134C46.761 36.8244 46.3679 36.8307 45.9459 36.9506C44.692 47.6363 35.6058 55.9271 24.5832 55.9271C21.2645 55.9271 18.1165 55.1742 15.3052 53.8283C14.7486 53.5619 14.2007 53.5078 13.7499 53.6284L10.7359 54.4349C6.98979 55.4372 3.56263 52.01 4.56495 48.264L5.3714 45.2499C5.492 44.7992 5.43795 44.2512 5.1715 43.6947C3.82558 40.8833 3.07275 37.7353 3.07275 34.4167C3.07275 23.3774 11.3886 14.2804 22.0978 13.0483ZM26.39 12.9811C37.0218 13.8653 45.4579 22.4817 46.0593 33.1914C46.7046 33.1299 47.3754 33.1716 48.0467 33.3512L49.2169 33.6643C50.222 33.9333 51.1414 33.0138 50.8725 32.0087L50.5594 30.8385C50.1731 29.3946 50.4249 27.9532 50.9692 26.7617C51.7843 24.9772 52.2394 22.9922 52.2394 20.8958C52.2394 13.089 45.9108 6.76041 38.104 6.76041C33.2318 6.76041 28.9325 9.22571 26.39 12.9811ZM24.5832 16.5937C14.7398 16.5937 6.76025 24.5733 6.76025 34.4167C6.76025 37.1726 7.38446 39.7775 8.49749 42.1024C9.07619 43.3111 9.31886 44.7631 8.93359 46.2031L8.12715 49.2171C7.85823 50.2221 8.77771 51.1416 9.78276 50.8727L12.7968 50.0662C14.2367 49.681 15.6887 49.9236 16.8975 50.5023C19.2223 51.6154 21.8273 52.2396 24.5832 52.2396C34.4265 52.2396 42.4061 44.26 42.4061 34.4167C42.4061 24.5733 34.4265 16.5937 24.5832 16.5937Z" fill="white"/>
<path d="M18.4373 34.4167C18.4373 35.7744 17.3367 36.875 15.979 36.875C14.6213 36.875 13.5207 35.7744 13.5207 34.4167C13.5207 33.059 14.6213 31.9583 15.979 31.9583C17.3367 31.9583 18.4373 33.059 18.4373 34.4167Z" fill="white"/>
<path d="M27.0415 34.4167C27.0415 35.7744 25.9409 36.875 24.5832 36.875C23.2255 36.875 22.1248 35.7744 22.1248 34.4167C22.1248 33.059 23.2255 31.9583 24.5832 31.9583C25.9409 31.9583 27.0415 33.059 27.0415 34.4167Z" fill="white"/>
<path d="M35.6457 34.4167C35.6457 35.7744 34.545 36.875 33.1873 36.875C31.8296 36.875 30.729 35.7744 30.729 34.4167C30.729 33.059 31.8296 31.9583 33.1873 31.9583C34.545 31.9583 35.6457 33.059 35.6457 34.4167Z" fill="white"/>
</svg>
