<svg width="57" height="57" viewBox="0 0 57 57" fill="none" xmlns="http://www.w3.org/2000/svg">
<path d="M18.4063 21.375C18.4063 20.3912 17.6088 19.5938 16.625 19.5938C15.6412 19.5938 14.8438 20.3912 14.8438 21.375V42.75C14.8438 43.7338 15.6412 44.5313 16.625 44.5313C17.6088 44.5313 18.4063 43.7338 18.4063 42.75V21.375Z" fill="white"/>
<path d="M28.5 12.4688C29.4838 12.4688 30.2813 13.2662 30.2813 14.25V42.75C30.2813 43.7338 29.4838 44.5313 28.5 44.5313C27.5163 44.5313 26.7188 43.7338 26.7188 42.75V14.25C26.7188 13.2662 27.5163 12.4688 28.5 12.4688Z" fill="white"/>
<path d="M42.1563 30.875C42.1563 29.8913 41.3588 29.0938 40.375 29.0938C39.3913 29.0938 38.5938 29.8913 38.5938 30.875V42.75C38.5938 43.7338 39.3913 44.5313 40.375 44.5313C41.3588 44.5313 42.1563 43.7338 42.1563 42.75V30.875Z" fill="white"/>
<path fill-rule="evenodd" clip-rule="evenodd" d="M28.3637 2.96875C22.8813 2.96872 18.5848 2.9687 15.2326 3.4194C11.8013 3.88072 9.09375 4.8434 6.96858 6.96858C4.8434 9.09375 3.88072 11.8013 3.4194 15.2326C2.9687 18.5848 2.96872 22.8813 2.96875 28.3637V28.6363C2.96872 34.1187 2.9687 38.4152 3.4194 41.7675C3.88072 45.1987 4.8434 47.9063 6.96858 50.0314C9.09375 52.1566 11.8013 53.1193 15.2326 53.5806C18.5848 54.0313 22.8813 54.0313 28.3638 54.0313H28.6363C34.1187 54.0313 38.4152 54.0313 41.7675 53.5806C45.1987 53.1193 47.9063 52.1566 50.0314 50.0314C52.1566 47.9063 53.1193 45.1987 53.5806 41.7675C54.0313 38.4152 54.0313 34.1187 54.0313 28.6363V28.3638C54.0313 22.8813 54.0313 18.5848 53.5806 15.2326C53.1193 11.8013 52.1566 9.09375 50.0314 6.96858C47.9063 4.8434 45.1987 3.88072 41.7675 3.4194C38.4152 2.9687 34.1187 2.96872 28.6363 2.96875H28.3637ZM9.48764 9.48764C10.8406 8.13471 12.671 7.35834 15.7073 6.95013C18.7947 6.53504 22.8517 6.53125 28.5 6.53125C34.1483 6.53125 38.2053 6.53504 41.2928 6.95013C44.329 7.35834 46.1594 8.13471 47.5124 9.48764C48.8653 10.8406 49.6417 12.671 50.0499 15.7073C50.465 18.7947 50.4688 22.8517 50.4688 28.5C50.4688 34.1483 50.465 38.2053 50.0499 41.2928C49.6417 44.329 48.8653 46.1594 47.5124 47.5124C46.1594 48.8653 44.329 49.6417 41.2928 50.0499C38.2053 50.465 34.1483 50.4688 28.5 50.4688C22.8517 50.4688 18.7947 50.465 15.7073 50.0499C12.671 49.6417 10.8406 48.8653 9.48764 47.5124C8.13471 46.1594 7.35834 44.329 6.95013 41.2928C6.53504 38.2053 6.53125 34.1483 6.53125 28.5C6.53125 22.8517 6.53504 18.7947 6.95013 15.7073C7.35834 12.671 8.13471 10.8406 9.48764 9.48764Z" fill="white"/>
</svg>
