<svg width="45" height="53" viewBox="0 0 45 53" fill="none" xmlns="http://www.w3.org/2000/svg">
<path fill-rule="evenodd" clip-rule="evenodd" d="M22.3615 0.0729378H22.6389C27.1567 0.0728988 30.7351 0.0728678 33.5357 0.449395C36.4179 0.836897 38.7507 1.65335 40.5904 3.49308C42.4302 5.33281 43.2466 7.66564 43.6341 10.5478C44.0106 13.3484 44.0106 16.9269 44.0106 21.4447V31.5554C44.0106 36.0732 44.0106 39.6516 43.6341 42.4522C43.2466 45.3344 42.4302 47.6673 40.5904 49.507C38.7507 51.3467 36.4179 52.1632 33.5357 52.5507C30.7351 52.9272 27.1567 52.9272 22.6388 52.9271H22.3615C17.8437 52.9272 14.2652 52.9272 11.4646 52.5507C8.58244 52.1632 6.24961 51.3467 4.40989 49.507C2.57016 47.6673 1.75371 45.3344 1.3662 42.4522C0.989677 39.6516 0.989708 36.0732 0.989747 31.5554V21.4447C0.989708 16.9268 0.989677 13.3484 1.3662 10.5478C1.75371 7.66564 2.57016 5.33281 4.40989 3.49308C6.24961 1.65335 8.58244 0.836897 11.4646 0.449395C14.2652 0.0728678 17.8436 0.0728988 22.3615 0.0729378ZM11.956 4.10401C9.4827 4.43654 8.05773 5.06014 7.01734 6.10054C5.97695 7.14093 5.35335 8.56589 5.02082 11.0392C4.68116 13.5655 4.67725 16.8958 4.67725 21.5834V31.4167C4.67725 36.1043 4.68116 39.4345 5.02082 41.9609C5.35335 44.4342 5.97695 45.8591 7.01734 46.8995C8.05773 47.9399 9.4827 48.5635 11.956 48.896C14.4823 49.2357 17.8126 49.2396 22.5002 49.2396C27.1878 49.2396 30.518 49.2357 33.0443 48.896C35.5176 48.5635 36.9426 47.9399 37.983 46.8995C39.0234 45.8591 39.647 44.4342 39.9795 41.9609C40.3192 39.4345 40.3231 36.1043 40.3231 31.4167V21.5834C40.3231 16.8958 40.3192 13.5655 39.9795 11.0392C39.647 8.56589 39.0234 7.14093 37.983 6.10054C36.9426 5.06014 35.5176 4.43654 33.0443 4.10401C30.518 3.76436 27.1878 3.76044 22.5002 3.76044C17.8126 3.76044 14.4823 3.76436 11.956 4.10401ZM13.2814 43.7084C13.2814 42.6901 14.1069 41.8646 15.1252 41.8646H29.8752C30.8934 41.8646 31.7189 42.6901 31.7189 43.7084C31.7189 44.7266 30.8934 45.5521 29.8752 45.5521H15.1252C14.1069 45.5521 13.2814 44.7266 13.2814 43.7084Z" fill="white"/>
</svg>
