<svg width="35" height="35" viewBox="0 0 35 35" fill="none" xmlns="http://www.w3.org/2000/svg">
<path d="M14.6383 7.75291L15.5848 9.44885C16.4389 10.9793 16.0961 12.9871 14.7508 14.3324C14.7508 14.3324 14.7508 14.3324 14.7508 14.3324C14.7507 14.3325 13.1191 15.9643 16.0776 18.9227C19.0354 21.8805 20.6671 20.2504 20.668 20.2495C20.668 20.2495 20.668 20.2495 20.668 20.2495C22.0133 18.9043 24.021 18.5614 25.5515 19.4155L27.2474 20.362C29.5585 21.6518 29.8314 24.8928 27.8 26.9242C26.5794 28.1448 25.0841 29.0946 23.4311 29.1573C20.6484 29.2628 15.9227 28.5585 11.1822 23.8181C6.44181 19.0777 5.73756 14.3519 5.84305 11.5692C5.90572 9.91625 6.8555 8.42092 8.07613 7.20029C10.1075 5.16891 13.3485 5.44184 14.6383 7.75291Z" stroke="#ED0F0F" stroke-linecap="round"/>
</svg>
