<svg width="59" height="59" viewBox="0 0 59 59" fill="none" xmlns="http://www.w3.org/2000/svg">
<path fill-rule="evenodd" clip-rule="evenodd" d="M21.9899 5.53125H37.0097C40.3717 5.5312 43.0816 5.53116 45.2129 5.8177C47.4257 6.1152 49.2888 6.75165 50.7685 8.23136C52.2482 9.71107 52.8846 11.5742 53.1821 13.7869C53.4687 15.9182 53.4686 18.6281 53.4686 21.9901V34.5445C53.4687 36.7533 53.4687 38.5951 53.2721 40.0573C53.0646 41.6006 52.6082 42.994 51.4885 44.1137C50.3688 45.2334 48.9754 45.6898 47.4321 45.8973C45.9699 46.0939 44.1281 46.0938 41.9193 46.0938H17.0804C14.8716 46.0938 13.0297 46.0939 11.5676 45.8973C10.0242 45.6898 8.63086 45.2334 7.51117 44.1137C6.39147 42.994 5.93503 41.6006 5.72754 40.0573C5.53095 38.5951 5.53101 36.7533 5.53108 34.5445L5.53109 21.9901C5.53104 18.6281 5.53099 15.9182 5.81754 13.7869C6.11504 11.5742 6.75149 9.71107 8.2312 8.23136C9.71091 6.75165 11.574 6.1152 13.7868 5.8177C15.9181 5.53116 18.6279 5.5312 21.9899 5.53125ZM14.2781 9.47232C12.4743 9.71485 11.519 10.1584 10.8387 10.8388C10.1583 11.5192 9.71468 12.4744 9.47216 14.2783C9.2225 16.1352 9.21859 18.5963 9.21859 22.125V34.4167C9.21859 36.7865 9.2225 38.3785 9.38215 39.5659C9.53467 40.7003 9.79826 41.1859 10.1186 41.5062C10.439 41.8266 10.9245 42.0902 12.0589 42.2427C13.2464 42.4023 14.8383 42.4063 17.2082 42.4063H41.7915C44.1614 42.4063 45.7533 42.4023 46.9408 42.2427C48.0752 42.0902 48.5607 41.8266 48.8811 41.5062C49.2014 41.1859 49.465 40.7003 49.6175 39.5659C49.7772 38.3785 49.7811 36.7865 49.7811 34.4167V22.125C49.7811 18.5963 49.7772 16.1352 49.5275 14.2783C49.285 12.4744 48.8414 11.5192 48.161 10.8388C47.4807 10.1584 46.5254 9.71485 44.7215 9.47232C42.8646 9.22267 40.4036 9.21875 36.8748 9.21875H22.1248C18.5961 9.21875 16.135 9.22267 14.2781 9.47232ZM20.2811 36.875C20.2811 35.8567 21.1066 35.0313 22.1248 35.0313H36.8748C37.8931 35.0313 38.7186 35.8567 38.7186 36.875C38.7186 37.8933 37.8931 38.7188 36.8748 38.7188H22.1248C21.1066 38.7188 20.2811 37.8933 20.2811 36.875ZM3.07275 51.625C3.07275 50.6067 3.89823 49.7813 4.9165 49.7813H54.0832C55.1014 49.7813 55.9269 50.6067 55.9269 51.625C55.9269 52.6433 55.1014 53.4688 54.0832 53.4688H4.9165C3.89823 53.4688 3.07275 52.6433 3.07275 51.625Z" fill="white"/>
</svg>
